<svg xmlns="http://www.w3.org/2000/svg" viewBox="0 0 48 48" shape-rendering="crispEdges"><rect x="0" y="0" width="48" height="1" fill="#140a20"/><rect x="0" y="1" width="48" height="1" fill="#140a20"/><rect x="0" y="2" width="48" height="1" fill="#140a20"/><rect x="0" y="3" width="48" height="1" fill="#140a20"/><rect x="0" y="4" width="20" height="1" fill="#140a20"/><rect x="20" y="4" width="1" height="1" fill="#6a5a9c"/><rect x="21" y="4" width="27" height="1" fill="#140a20"/><rect x="0" y="5" width="48" height="1" fill="#140a20"/><rect x="0" y="6" width="5" height="1" fill="#140a20"/><rect x="5" y="6" width="1" height="1" fill="#1c1030"/><rect x="6" y="6" width="1" height="1" fill="#140a20"/><rect x="7" y="6" width="1" height="1" fill="#1c1030"/><rect x="8" y="6" width="1" height="1" fill="#140a20"/><rect x="9" y="6" width="1" height="1" fill="#1c1030"/><rect x="10" y="6" width="1" height="1" fill="#140a20"/><rect x="11" y="6" width="1" height="1" fill="#1c1030"/><rect x="12" y="6" width="1" height="1" fill="#140a20"/><rect x="13" y="6" width="1" height="1" fill="#1c1030"/><rect x="14" y="6" width="1" height="1" fill="#140a20"/><rect x="15" y="6" width="1" height="1" fill="#1c1030"/><rect x="16" y="6" width="1" height="1" fill="#140a20"/><rect x="17" y="6" width="1" height="1" fill="#1c1030"/><rect x="18" y="6" width="1" height="1" fill="#140a20"/><rect x="19" y="6" width="1" height="1" fill="#1c1030"/><rect x="20" y="6" width="1" height="1" fill="#140a20"/><rect x="21" y="6" width="1" height="1" fill="#1c1030"/><rect x="22" y="6" width="1" height="1" fill="#140a20"/><rect x="23" y="6" width="1" height="1" fill="#1c1030"/><rect x="24" y="6" width="1" height="1" fill="#140a20"/><rect x="25" y="6" width="1" height="1" fill="#1c1030"/><rect x="26" y="6" width="1" height="1" fill="#140a20"/><rect x="27" y="6" width="1" height="1" fill="#1c1030"/><rect x="28" y="6" width="1" height="1" fill="#140a20"/><rect x="29" y="6" width="1" height="1" fill="#1c1030"/><rect x="30" y="6" width="1" height="1" fill="#140a20"/><rect x="31" y="6" width="1" height="1" fill="#1c1030"/><rect x="32" y="6" width="1" height="1" fill="#140a20"/><rect x="33" y="6" width="1" height="1" fill="#1c1030"/><rect x="34" y="6" width="1" height="1" fill="#140a20"/><rect x="35" y="6" width="1" height="1" fill="#1c1030"/><rect x="36" y="6" width="1" height="1" fill="#140a20"/><rect x="37" y="6" width="1" height="1" fill="#1c1030"/><rect x="38" y="6" width="1" height="1" fill="#140a20"/><rect x="39" y="6" width="1" height="1" fill="#1c1030"/><rect x="40" y="6" width="1" height="1" fill="#140a20"/><rect x="41" y="6" width="1" height="1" fill="#1c1030"/><rect x="42" y="6" width="1" height="1" fill="#140a20"/><rect x="43" y="6" width="1" height="1" fill="#1c1030"/><rect x="44" y="6" width="4" height="1" fill="#140a20"/><rect x="0" y="7" width="4" height="1" fill="#140a20"/><rect x="4" y="7" width="1" height="1" fill="#1c1030"/><rect x="5" y="7" width="1" height="1" fill="#140a20"/><rect x="6" y="7" width="1" height="1" fill="#1c1030"/><rect x="7" y="7" width="1" height="1" fill="#140a20"/><rect x="8" y="7" width="1" height="1" fill="#1c1030"/><rect x="9" y="7" width="1" height="1" fill="#140a20"/><rect x="10" y="7" width="1" height="1" fill="#1c1030"/><rect x="11" y="7" width="1" height="1" fill="#140a20"/><rect x="12" y="7" width="1" height="1" fill="#1c1030"/><rect x="13" y="7" width="1" height="1" fill="#140a20"/><rect x="14" y="7" width="1" height="1" fill="#1c1030"/><rect x="15" y="7" width="1" height="1" fill="#140a20"/><rect x="16" y="7" width="1" height="1" fill="#1c1030"/><rect x="17" y="7" width="1" height="1" fill="#140a20"/><rect x="18" y="7" width="1" height="1" fill="#1c1030"/><rect x="19" y="7" width="1" height="1" fill="#140a20"/><rect x="20" y="7" width="1" height="1" fill="#1c1030"/><rect x="21" y="7" width="1" height="1" fill="#140a20"/><rect x="22" y="7" width="1" height="1" fill="#1c1030"/><rect x="23" y="7" width="1" height="1" fill="#140a20"/><rect x="24" y="7" width="1" height="1" fill="#1c1030"/><rect x="25" y="7" width="1" height="1" fill="#140a20"/><rect x="26" y="7" width="1" height="1" fill="#1c1030"/><rect x="27" y="7" width="1" height="1" fill="#140a20"/><rect x="28" y="7" width="1" height="1" fill="#1c1030"/><rect x="29" y="7" width="1" height="1" fill="#140a20"/><rect x="30" y="7" width="1" height="1" fill="#1c1030"/><rect x="31" y="7" width="1" height="1" fill="#140a20"/><rect x="32" y="7" width="1" height="1" fill="#1c1030"/><rect x="33" y="7" width="1" height="1" fill="#140a20"/><rect x="34" y="7" width="1" height="1" fill="#1c1030"/><rect x="35" y="7" width="1" height="1" fill="#140a20"/><rect x="36" y="7" width="1" height="1" fill="#1c1030"/><rect x="37" y="7" width="1" height="1" fill="#140a20"/><rect x="38" y="7" width="1" height="1" fill="#1c1030"/><rect x="39" y="7" width="1" height="1" fill="#140a20"/><rect x="40" y="7" width="1" height="1" fill="#1c1030"/><rect x="41" y="7" width="1" height="1" fill="#140a20"/><rect x="42" y="7" width="1" height="1" fill="#1c1030"/><rect x="43" y="7" width="1" height="1" fill="#6a5a9c"/><rect x="44" y="7" width="1" height="1" fill="#1c1030"/><rect x="45" y="7" width="3" height="1" fill="#140a20"/><rect x="0" y="8" width="5" height="1" fill="#140a20"/><rect x="5" y="8" width="39" height="1" fill="#1c1030"/><rect x="44" y="8" width="4" height="1" fill="#140a20"/><rect x="0" y="9" width="4" height="1" fill="#140a20"/><rect x="4" y="9" width="1" height="1" fill="#1c1030"/><rect x="5" y="9" width="1" height="1" fill="#140a20"/><rect x="6" y="9" width="37" height="1" fill="#1c1030"/><rect x="43" y="9" width="1" height="1" fill="#140a20"/><rect x="44" y="9" width="1" height="1" fill="#1c1030"/><rect x="45" y="9" width="3" height="1" fill="#140a20"/><rect x="0" y="10" width="5" height="1" fill="#140a20"/><rect x="5" y="10" width="39" height="1" fill="#1c1030"/><rect x="44" y="10" width="4" height="1" fill="#140a20"/><rect x="0" y="11" width="4" height="1" fill="#140a20"/><rect x="4" y="11" width="1" height="1" fill="#1c1030"/><rect x="5" y="11" width="1" height="1" fill="#140a20"/><rect x="6" y="11" width="37" height="1" fill="#1c1030"/><rect x="43" y="11" width="1" height="1" fill="#140a20"/><rect x="44" y="11" width="1" height="1" fill="#1c1030"/><rect x="45" y="11" width="3" height="1" fill="#140a20"/><rect x="0" y="12" width="5" height="1" fill="#140a20"/><rect x="5" y="12" width="39" height="1" fill="#1c1030"/><rect x="44" y="12" width="4" height="1" fill="#140a20"/><rect x="0" y="13" width="4" height="1" fill="#140a20"/><rect x="4" y="13" width="1" height="1" fill="#1c1030"/><rect x="5" y="13" width="1" height="1" fill="#140a20"/><rect x="6" y="13" width="37" height="1" fill="#1c1030"/><rect x="43" y="13" width="1" height="1" fill="#140a20"/><rect x="44" y="13" width="1" height="1" fill="#1c1030"/><rect x="45" y="13" width="3" height="1" fill="#140a20"/><rect x="0" y="14" width="5" height="1" fill="#140a20"/><rect x="5" y="14" width="1" height="1" fill="#6a5a9c"/><rect x="6" y="14" width="7" height="1" fill="#1c1030"/><rect x="13" y="14" width="23" height="1" fill="#0a0612"/><rect x="36" y="14" width="8" height="1" fill="#1c1030"/><rect x="44" y="14" width="4" height="1" fill="#140a20"/><rect x="0" y="15" width="4" height="1" fill="#140a20"/><rect x="4" y="15" width="1" height="1" fill="#1c1030"/><rect x="5" y="15" width="1" height="1" fill="#140a20"/><rect x="6" y="15" width="6" height="1" fill="#1c1030"/><rect x="12" y="15" width="1" height="1" fill="#2a1a4a"/><rect x="13" y="15" width="1" height="1" fill="#0a0612"/><rect x="14" y="15" width="21" height="1" fill="#3e3858"/><rect x="35" y="15" width="1" height="1" fill="#0a0612"/><rect x="36" y="15" width="1" height="1" fill="#e7dec4"/><rect x="37" y="15" width="1" height="1" fill="#0a0612"/><rect x="38" y="15" width="5" height="1" fill="#1c1030"/><rect x="43" y="15" width="1" height="1" fill="#140a20"/><rect x="44" y="15" width="1" height="1" fill="#1c1030"/><rect x="45" y="15" width="3" height="1" fill="#140a20"/><rect x="0" y="16" width="5" height="1" fill="#140a20"/><rect x="5" y="16" width="8" height="1" fill="#1c1030"/><rect x="13" y="16" width="1" height="1" fill="#0a0612"/><rect x="14" y="16" width="1" height="1" fill="#3e3858"/><rect x="15" y="16" width="19" height="1" fill="#12101a"/><rect x="34" y="16" width="1" height="1" fill="#08060e"/><rect x="35" y="16" width="1" height="1" fill="#0a0612"/><rect x="36" y="16" width="1" height="1" fill="#e7dec4"/><rect x="37" y="16" width="1" height="1" fill="#0a0612"/><rect x="38" y="16" width="6" height="1" fill="#1c1030"/><rect x="44" y="16" width="4" height="1" fill="#140a20"/><rect x="0" y="17" width="4" height="1" fill="#140a20"/><rect x="4" y="17" width="1" height="1" fill="#1c1030"/><rect x="5" y="17" width="1" height="1" fill="#140a20"/><rect x="6" y="17" width="6" height="1" fill="#1c1030"/><rect x="12" y="17" width="1" height="1" fill="#2a1a4a"/><rect x="13" y="17" width="1" height="1" fill="#0a0612"/><rect x="14" y="17" width="1" height="1" fill="#3e3858"/><rect x="15" y="17" width="19" height="1" fill="#12101a"/><rect x="34" y="17" width="1" height="1" fill="#08060e"/><rect x="35" y="17" width="1" height="1" fill="#0a0612"/><rect x="36" y="17" width="1" height="1" fill="#e7dec4"/><rect x="37" y="17" width="1" height="1" fill="#0a0612"/><rect x="38" y="17" width="5" height="1" fill="#1c1030"/><rect x="43" y="17" width="1" height="1" fill="#140a20"/><rect x="44" y="17" width="1" height="1" fill="#1c1030"/><rect x="45" y="17" width="3" height="1" fill="#140a20"/><rect x="0" y="18" width="5" height="1" fill="#140a20"/><rect x="5" y="18" width="8" height="1" fill="#1c1030"/><rect x="13" y="18" width="1" height="1" fill="#0a0612"/><rect x="14" y="18" width="1" height="1" fill="#3e3858"/><rect x="15" y="18" width="19" height="1" fill="#12101a"/><rect x="34" y="18" width="1" height="1" fill="#08060e"/><rect x="35" y="18" width="1" height="1" fill="#0a0612"/><rect x="36" y="18" width="1" height="1" fill="#e7dec4"/><rect x="37" y="18" width="1" height="1" fill="#0a0612"/><rect x="38" y="18" width="4" height="1" fill="#1c1030"/><rect x="42" y="18" width="1" height="1" fill="#6a5a9c"/><rect x="43" y="18" width="1" height="1" fill="#1c1030"/><rect x="44" y="18" width="4" height="1" fill="#140a20"/><rect x="0" y="19" width="4" height="1" fill="#140a20"/><rect x="4" y="19" width="1" height="1" fill="#1c1030"/><rect x="5" y="19" width="1" height="1" fill="#140a20"/><rect x="6" y="19" width="6" height="1" fill="#1c1030"/><rect x="12" y="19" width="1" height="1" fill="#2a1a4a"/><rect x="13" y="19" width="1" height="1" fill="#0a0612"/><rect x="14" y="19" width="1" height="1" fill="#3e3858"/><rect x="15" y="19" width="2" height="1" fill="#e8e4f0"/><rect x="17" y="19" width="2" height="1" fill="#12101a"/><rect x="19" y="19" width="3" height="1" fill="#e8e4f0"/><rect x="22" y="19" width="2" height="1" fill="#12101a"/><rect x="24" y="19" width="1" height="1" fill="#e8e4f0"/><rect x="25" y="19" width="2" height="1" fill="#12101a"/><rect x="27" y="19" width="3" height="1" fill="#e8e4f0"/><rect x="30" y="19" width="1" height="1" fill="#12101a"/><rect x="31" y="19" width="1" height="1" fill="#e8e4f0"/><rect x="32" y="19" width="1" height="1" fill="#12101a"/><rect x="33" y="19" width="1" height="1" fill="#e8e4f0"/><rect x="34" y="19" width="1" height="1" fill="#08060e"/><rect x="35" y="19" width="1" height="1" fill="#0a0612"/><rect x="36" y="19" width="1" height="1" fill="#e7dec4"/><rect x="37" y="19" width="1" height="1" fill="#0a0612"/><rect x="38" y="19" width="5" height="1" fill="#1c1030"/><rect x="43" y="19" width="1" height="1" fill="#140a20"/><rect x="44" y="19" width="1" height="1" fill="#1c1030"/><rect x="45" y="19" width="3" height="1" fill="#140a20"/><rect x="0" y="20" width="5" height="1" fill="#140a20"/><rect x="5" y="20" width="8" height="1" fill="#1c1030"/><rect x="13" y="20" width="1" height="1" fill="#0a0612"/><rect x="14" y="20" width="1" height="1" fill="#3e3858"/><rect x="15" y="20" width="1" height="1" fill="#e8e4f0"/><rect x="16" y="20" width="1" height="1" fill="#12101a"/><rect x="17" y="20" width="1" height="1" fill="#e8e4f0"/><rect x="18" y="20" width="1" height="1" fill="#12101a"/><rect x="19" y="20" width="1" height="1" fill="#e8e4f0"/><rect x="20" y="20" width="3" height="1" fill="#12101a"/><rect x="23" y="20" width="1" height="1" fill="#e8e4f0"/><rect x="24" y="20" width="1" height="1" fill="#12101a"/><rect x="25" y="20" width="1" height="1" fill="#e8e4f0"/><rect x="26" y="20" width="2" height="1" fill="#12101a"/><rect x="28" y="20" width="1" height="1" fill="#e8e4f0"/><rect x="29" y="20" width="2" height="1" fill="#12101a"/><rect x="31" y="20" width="1" height="1" fill="#e8e4f0"/><rect x="32" y="20" width="1" height="1" fill="#12101a"/><rect x="33" y="20" width="1" height="1" fill="#e8e4f0"/><rect x="34" y="20" width="1" height="1" fill="#08060e"/><rect x="35" y="20" width="1" height="1" fill="#0a0612"/><rect x="36" y="20" width="1" height="1" fill="#e7dec4"/><rect x="37" y="20" width="1" height="1" fill="#0a0612"/><rect x="38" y="20" width="6" height="1" fill="#1c1030"/><rect x="44" y="20" width="4" height="1" fill="#140a20"/><rect x="0" y="21" width="4" height="1" fill="#140a20"/><rect x="4" y="21" width="1" height="1" fill="#1c1030"/><rect x="5" y="21" width="1" height="1" fill="#140a20"/><rect x="6" y="21" width="6" height="1" fill="#1c1030"/><rect x="12" y="21" width="1" height="1" fill="#2a1a4a"/><rect x="13" y="21" width="1" height="1" fill="#0a0612"/><rect x="14" y="21" width="1" height="1" fill="#3e3858"/><rect x="15" y="21" width="1" height="1" fill="#e8e4f0"/><rect x="16" y="21" width="1" height="1" fill="#12101a"/><rect x="17" y="21" width="1" height="1" fill="#e8e4f0"/><rect x="18" y="21" width="1" height="1" fill="#12101a"/><rect x="19" y="21" width="2" height="1" fill="#e8e4f0"/><rect x="21" y="21" width="2" height="1" fill="#12101a"/><rect x="23" y="21" width="3" height="1" fill="#e8e4f0"/><rect x="26" y="21" width="2" height="1" fill="#12101a"/><rect x="28" y="21" width="1" height="1" fill="#e8e4f0"/><rect x="29" y="21" width="2" height="1" fill="#12101a"/><rect x="31" y="21" width="3" height="1" fill="#e8e4f0"/><rect x="34" y="21" width="1" height="1" fill="#08060e"/><rect x="35" y="21" width="1" height="1" fill="#0a0612"/><rect x="36" y="21" width="1" height="1" fill="#e7dec4"/><rect x="37" y="21" width="1" height="1" fill="#0a0612"/><rect x="38" y="21" width="5" height="1" fill="#1c1030"/><rect x="43" y="21" width="1" height="1" fill="#140a20"/><rect x="44" y="21" width="1" height="1" fill="#1c1030"/><rect x="45" y="21" width="3" height="1" fill="#140a20"/><rect x="0" y="22" width="5" height="1" fill="#140a20"/><rect x="5" y="22" width="8" height="1" fill="#1c1030"/><rect x="13" y="22" width="1" height="1" fill="#0a0612"/><rect x="14" y="22" width="1" height="1" fill="#3e3858"/><rect x="15" y="22" width="1" height="1" fill="#e8e4f0"/><rect x="16" y="22" width="1" height="1" fill="#12101a"/><rect x="17" y="22" width="1" height="1" fill="#e8e4f0"/><rect x="18" y="22" width="1" height="1" fill="#12101a"/><rect x="19" y="22" width="1" height="1" fill="#e8e4f0"/><rect x="20" y="22" width="3" height="1" fill="#12101a"/><rect x="23" y="22" width="1" height="1" fill="#e8e4f0"/><rect x="24" y="22" width="1" height="1" fill="#12101a"/><rect x="25" y="22" width="1" height="1" fill="#e8e4f0"/><rect x="26" y="22" width="2" height="1" fill="#12101a"/><rect x="28" y="22" width="1" height="1" fill="#e8e4f0"/><rect x="29" y="22" width="2" height="1" fill="#12101a"/><rect x="31" y="22" width="1" height="1" fill="#e8e4f0"/><rect x="32" y="22" width="1" height="1" fill="#12101a"/><rect x="33" y="22" width="1" height="1" fill="#e8e4f0"/><rect x="34" y="22" width="1" height="1" fill="#08060e"/><rect x="35" y="22" width="1" height="1" fill="#0a0612"/><rect x="36" y="22" width="1" height="1" fill="#e7dec4"/><rect x="37" y="22" width="1" height="1" fill="#0a0612"/><rect x="38" y="22" width="6" height="1" fill="#1c1030"/><rect x="44" y="22" width="4" height="1" fill="#140a20"/><rect x="0" y="23" width="4" height="1" fill="#140a20"/><rect x="4" y="23" width="1" height="1" fill="#1c1030"/><rect x="5" y="23" width="1" height="1" fill="#140a20"/><rect x="6" y="23" width="6" height="1" fill="#1c1030"/><rect x="12" y="23" width="1" height="1" fill="#2a1a4a"/><rect x="13" y="23" width="1" height="1" fill="#0a0612"/><rect x="14" y="23" width="1" height="1" fill="#3e3858"/><rect x="15" y="23" width="2" height="1" fill="#e8e4f0"/><rect x="17" y="23" width="2" height="1" fill="#12101a"/><rect x="19" y="23" width="3" height="1" fill="#e8e4f0"/><rect x="22" y="23" width="1" height="1" fill="#12101a"/><rect x="23" y="23" width="1" height="1" fill="#e8e4f0"/><rect x="24" y="23" width="1" height="1" fill="#12101a"/><rect x="25" y="23" width="1" height="1" fill="#e8e4f0"/><rect x="26" y="23" width="2" height="1" fill="#12101a"/><rect x="28" y="23" width="1" height="1" fill="#e8e4f0"/><rect x="29" y="23" width="2" height="1" fill="#12101a"/><rect x="31" y="23" width="1" height="1" fill="#e8e4f0"/><rect x="32" y="23" width="1" height="1" fill="#12101a"/><rect x="33" y="23" width="1" height="1" fill="#e8e4f0"/><rect x="34" y="23" width="1" height="1" fill="#08060e"/><rect x="35" y="23" width="1" height="1" fill="#0a0612"/><rect x="36" y="23" width="1" height="1" fill="#e7dec4"/><rect x="37" y="23" width="1" height="1" fill="#0a0612"/><rect x="38" y="23" width="5" height="1" fill="#1c1030"/><rect x="43" y="23" width="1" height="1" fill="#140a20"/><rect x="44" y="23" width="1" height="1" fill="#1c1030"/><rect x="45" y="23" width="3" height="1" fill="#140a20"/><rect x="0" y="24" width="5" height="1" fill="#140a20"/><rect x="5" y="24" width="8" height="1" fill="#1c1030"/><rect x="13" y="24" width="1" height="1" fill="#0a0612"/><rect x="14" y="24" width="1" height="1" fill="#3e3858"/><rect x="15" y="24" width="19" height="1" fill="#12101a"/><rect x="34" y="24" width="1" height="1" fill="#08060e"/><rect x="35" y="24" width="1" height="1" fill="#0a0612"/><rect x="36" y="24" width="1" height="1" fill="#e7dec4"/><rect x="37" y="24" width="1" height="1" fill="#0a0612"/><rect x="38" y="24" width="6" height="1" fill="#1c1030"/><rect x="44" y="24" width="4" height="1" fill="#140a20"/><rect x="0" y="25" width="4" height="1" fill="#140a20"/><rect x="4" y="25" width="1" height="1" fill="#1c1030"/><rect x="5" y="25" width="1" height="1" fill="#140a20"/><rect x="6" y="25" width="6" height="1" fill="#1c1030"/><rect x="12" y="25" width="1" height="1" fill="#2a1a4a"/><rect x="13" y="25" width="1" height="1" fill="#0a0612"/><rect x="14" y="25" width="1" height="1" fill="#3e3858"/><rect x="15" y="25" width="19" height="1" fill="#12101a"/><rect x="34" y="25" width="1" height="1" fill="#08060e"/><rect x="35" y="25" width="1" height="1" fill="#0a0612"/><rect x="36" y="25" width="1" height="1" fill="#e7dec4"/><rect x="37" y="25" width="1" height="1" fill="#0a0612"/><rect x="38" y="25" width="5" height="1" fill="#1c1030"/><rect x="43" y="25" width="1" height="1" fill="#140a20"/><rect x="44" y="25" width="1" height="1" fill="#1c1030"/><rect x="45" y="25" width="3" height="1" fill="#140a20"/><rect x="0" y="26" width="5" height="1" fill="#140a20"/><rect x="5" y="26" width="8" height="1" fill="#1c1030"/><rect x="13" y="26" width="1" height="1" fill="#0a0612"/><rect x="14" y="26" width="1" height="1" fill="#3e3858"/><rect x="15" y="26" width="6" height="1" fill="#12101a"/><rect x="21" y="26" width="7" height="1" fill="#8a84a8"/><rect x="28" y="26" width="6" height="1" fill="#12101a"/><rect x="34" y="26" width="1" height="1" fill="#08060e"/><rect x="35" y="26" width="1" height="1" fill="#0a0612"/><rect x="36" y="26" width="1" height="1" fill="#e7dec4"/><rect x="37" y="26" width="1" height="1" fill="#0a0612"/><rect x="38" y="26" width="6" height="1" fill="#1c1030"/><rect x="44" y="26" width="4" height="1" fill="#140a20"/><rect x="0" y="27" width="4" height="1" fill="#140a20"/><rect x="4" y="27" width="1" height="1" fill="#1c1030"/><rect x="5" y="27" width="1" height="1" fill="#140a20"/><rect x="6" y="27" width="6" height="1" fill="#1c1030"/><rect x="12" y="27" width="1" height="1" fill="#2a1a4a"/><rect x="13" y="27" width="1" height="1" fill="#0a0612"/><rect x="14" y="27" width="1" height="1" fill="#3e3858"/><rect x="15" y="27" width="19" height="1" fill="#12101a"/><rect x="34" y="27" width="1" height="1" fill="#08060e"/><rect x="35" y="27" width="1" height="1" fill="#0a0612"/><rect x="36" y="27" width="1" height="1" fill="#e7dec4"/><rect x="37" y="27" width="1" height="1" fill="#0a0612"/><rect x="38" y="27" width="5" height="1" fill="#1c1030"/><rect x="43" y="27" width="1" height="1" fill="#140a20"/><rect x="44" y="27" width="1" height="1" fill="#1c1030"/><rect x="45" y="27" width="3" height="1" fill="#140a20"/><rect x="0" y="28" width="5" height="1" fill="#140a20"/><rect x="5" y="28" width="8" height="1" fill="#1c1030"/><rect x="13" y="28" width="1" height="1" fill="#0a0612"/><rect x="14" y="28" width="1" height="1" fill="#3e3858"/><rect x="15" y="28" width="19" height="1" fill="#12101a"/><rect x="34" y="28" width="1" height="1" fill="#08060e"/><rect x="35" y="28" width="1" height="1" fill="#0a0612"/><rect x="36" y="28" width="1" height="1" fill="#e7dec4"/><rect x="37" y="28" width="1" height="1" fill="#0a0612"/><rect x="38" y="28" width="6" height="1" fill="#1c1030"/><rect x="44" y="28" width="4" height="1" fill="#140a20"/><rect x="0" y="29" width="4" height="1" fill="#140a20"/><rect x="4" y="29" width="1" height="1" fill="#1c1030"/><rect x="5" y="29" width="1" height="1" fill="#140a20"/><rect x="6" y="29" width="6" height="1" fill="#1c1030"/><rect x="12" y="29" width="1" height="1" fill="#2a1a4a"/><rect x="13" y="29" width="1" height="1" fill="#0a0612"/><rect x="14" y="29" width="1" height="1" fill="#3e3858"/><rect x="15" y="29" width="19" height="1" fill="#12101a"/><rect x="34" y="29" width="1" height="1" fill="#08060e"/><rect x="35" y="29" width="1" height="1" fill="#0a0612"/><rect x="36" y="29" width="1" height="1" fill="#e7dec4"/><rect x="37" y="29" width="1" height="1" fill="#0a0612"/><rect x="38" y="29" width="5" height="1" fill="#1c1030"/><rect x="43" y="29" width="1" height="1" fill="#140a20"/><rect x="44" y="29" width="1" height="1" fill="#1c1030"/><rect x="45" y="29" width="3" height="1" fill="#140a20"/><rect x="0" y="30" width="5" height="1" fill="#140a20"/><rect x="5" y="30" width="4" height="1" fill="#1c1030"/><rect x="9" y="30" width="1" height="1" fill="#6a5a9c"/><rect x="10" y="30" width="3" height="1" fill="#1c1030"/><rect x="13" y="30" width="1" height="1" fill="#0a0612"/><rect x="14" y="30" width="1" height="1" fill="#3e3858"/><rect x="15" y="30" width="19" height="1" fill="#12101a"/><rect x="34" y="30" width="1" height="1" fill="#08060e"/><rect x="35" y="30" width="1" height="1" fill="#0a0612"/><rect x="36" y="30" width="1" height="1" fill="#e7dec4"/><rect x="37" y="30" width="1" height="1" fill="#0a0612"/><rect x="38" y="30" width="6" height="1" fill="#1c1030"/><rect x="44" y="30" width="4" height="1" fill="#140a20"/><rect x="0" y="31" width="4" height="1" fill="#140a20"/><rect x="4" y="31" width="1" height="1" fill="#1c1030"/><rect x="5" y="31" width="1" height="1" fill="#140a20"/><rect x="6" y="31" width="6" height="1" fill="#1c1030"/><rect x="12" y="31" width="1" height="1" fill="#2a1a4a"/><rect x="13" y="31" width="1" height="1" fill="#4a2e23"/><rect x="14" y="31" width="1" height="1" fill="#3e3858"/><rect x="15" y="31" width="1" height="1" fill="#2e9e3a"/><rect x="16" y="31" width="18" height="1" fill="#12101a"/><rect x="34" y="31" width="1" height="1" fill="#08060e"/><rect x="35" y="31" width="1" height="1" fill="#0a0612"/><rect x="36" y="31" width="1" height="1" fill="#e7dec4"/><rect x="37" y="31" width="1" height="1" fill="#0a0612"/><rect x="38" y="31" width="5" height="1" fill="#1c1030"/><rect x="43" y="31" width="1" height="1" fill="#140a20"/><rect x="44" y="31" width="1" height="1" fill="#1c1030"/><rect x="45" y="31" width="3" height="1" fill="#140a20"/><rect x="0" y="32" width="5" height="1" fill="#140a20"/><rect x="5" y="32" width="7" height="1" fill="#1c1030"/><rect x="12" y="32" width="1" height="1" fill="#4a2e23"/><rect x="13" y="32" width="1" height="1" fill="#0a0612"/><rect x="14" y="32" width="2" height="1" fill="#2e9e3a"/><rect x="16" y="32" width="18" height="1" fill="#12101a"/><rect x="34" y="32" width="1" height="1" fill="#08060e"/><rect x="35" y="32" width="1" height="1" fill="#0a0612"/><rect x="36" y="32" width="1" height="1" fill="#e7dec4"/><rect x="37" y="32" width="1" height="1" fill="#0a0612"/><rect x="38" y="32" width="6" height="1" fill="#1c1030"/><rect x="44" y="32" width="4" height="1" fill="#140a20"/><rect x="0" y="33" width="4" height="1" fill="#140a20"/><rect x="4" y="33" width="1" height="1" fill="#1c1030"/><rect x="5" y="33" width="1" height="1" fill="#140a20"/><rect x="6" y="33" width="6" height="1" fill="#1c1030"/><rect x="12" y="33" width="1" height="1" fill="#4a2e23"/><rect x="13" y="33" width="1" height="1" fill="#0a0612"/><rect x="14" y="33" width="1" height="1" fill="#3e3858"/><rect x="15" y="33" width="19" height="1" fill="#12101a"/><rect x="34" y="33" width="1" height="1" fill="#08060e"/><rect x="35" y="33" width="1" height="1" fill="#0a0612"/><rect x="36" y="33" width="1" height="1" fill="#e7dec4"/><rect x="37" y="33" width="1" height="1" fill="#0a0612"/><rect x="38" y="33" width="5" height="1" fill="#1c1030"/><rect x="43" y="33" width="1" height="1" fill="#140a20"/><rect x="44" y="33" width="1" height="1" fill="#1c1030"/><rect x="45" y="33" width="3" height="1" fill="#140a20"/><rect x="0" y="34" width="5" height="1" fill="#140a20"/><rect x="5" y="34" width="6" height="1" fill="#1c1030"/><rect x="11" y="34" width="3" height="1" fill="#0a0612"/><rect x="14" y="34" width="1" height="1" fill="#3e3858"/><rect x="15" y="34" width="1" height="1" fill="#8a84a8"/><rect x="16" y="34" width="17" height="1" fill="#12101a"/><rect x="33" y="34" width="1" height="1" fill="#8a84a8"/><rect x="34" y="34" width="1" height="1" fill="#08060e"/><rect x="35" y="34" width="1" height="1" fill="#0a0612"/><rect x="36" y="34" width="1" height="1" fill="#e7dec4"/><rect x="37" y="34" width="1" height="1" fill="#0a0612"/><rect x="38" y="34" width="2" height="1" fill="#1c1030"/><rect x="40" y="34" width="1" height="1" fill="#6a5a9c"/><rect x="41" y="34" width="3" height="1" fill="#1c1030"/><rect x="44" y="34" width="4" height="1" fill="#140a20"/><rect x="0" y="35" width="4" height="1" fill="#140a20"/><rect x="4" y="35" width="1" height="1" fill="#1c1030"/><rect x="5" y="35" width="1" height="1" fill="#140a20"/><rect x="6" y="35" width="3" height="1" fill="#1c1030"/><rect x="9" y="35" width="2" height="1" fill="#0a0612"/><rect x="11" y="35" width="3" height="1" fill="#f2a08e"/><rect x="14" y="35" width="2" height="1" fill="#0a0612"/><rect x="16" y="35" width="1" height="1" fill="#8a84a8"/><rect x="17" y="35" width="15" height="1" fill="#12101a"/><rect x="32" y="35" width="2" height="1" fill="#8a84a8"/><rect x="34" y="35" width="1" height="1" fill="#08060e"/><rect x="35" y="35" width="1" height="1" fill="#0a0612"/><rect x="36" y="35" width="1" height="1" fill="#e7dec4"/><rect x="37" y="35" width="1" height="1" fill="#0a0612"/><rect x="38" y="35" width="5" height="1" fill="#1c1030"/><rect x="43" y="35" width="1" height="1" fill="#140a20"/><rect x="44" y="35" width="1" height="1" fill="#1c1030"/><rect x="45" y="35" width="3" height="1" fill="#140a20"/><rect x="0" y="36" width="5" height="1" fill="#140a20"/><rect x="5" y="36" width="4" height="1" fill="#1c1030"/><rect x="9" y="36" width="1" height="1" fill="#0a0612"/><rect x="10" y="36" width="2" height="1" fill="#f2a08e"/><rect x="12" y="36" width="3" height="1" fill="#c8281c"/><rect x="15" y="36" width="1" height="1" fill="#0a0612"/><rect x="16" y="36" width="18" height="1" fill="#12101a"/><rect x="34" y="36" width="1" height="1" fill="#08060e"/><rect x="35" y="36" width="1" height="1" fill="#0a0612"/><rect x="36" y="36" width="1" height="1" fill="#e7dec4"/><rect x="37" y="36" width="1" height="1" fill="#0a0612"/><rect x="38" y="36" width="6" height="1" fill="#1c1030"/><rect x="44" y="36" width="4" height="1" fill="#140a20"/><rect x="0" y="37" width="4" height="1" fill="#140a20"/><rect x="4" y="37" width="1" height="1" fill="#1c1030"/><rect x="5" y="37" width="1" height="1" fill="#140a20"/><rect x="6" y="37" width="2" height="1" fill="#1c1030"/><rect x="8" y="37" width="1" height="1" fill="#0a0612"/><rect x="9" y="37" width="2" height="1" fill="#f2a08e"/><rect x="11" y="37" width="5" height="1" fill="#c8281c"/><rect x="16" y="37" width="1" height="1" fill="#0a0612"/><rect x="17" y="37" width="17" height="1" fill="#12101a"/><rect x="34" y="37" width="1" height="1" fill="#08060e"/><rect x="35" y="37" width="1" height="1" fill="#0a0612"/><rect x="36" y="37" width="1" height="1" fill="#e7dec4"/><rect x="37" y="37" width="1" height="1" fill="#0a0612"/><rect x="38" y="37" width="5" height="1" fill="#1c1030"/><rect x="43" y="37" width="1" height="1" fill="#140a20"/><rect x="44" y="37" width="1" height="1" fill="#1c1030"/><rect x="45" y="37" width="3" height="1" fill="#140a20"/><rect x="0" y="38" width="5" height="1" fill="#140a20"/><rect x="5" y="38" width="3" height="1" fill="#1c1030"/><rect x="8" y="38" width="1" height="1" fill="#0a0612"/><rect x="9" y="38" width="1" height="1" fill="#f2a08e"/><rect x="10" y="38" width="5" height="1" fill="#c8281c"/><rect x="15" y="38" width="1" height="1" fill="#7e150c"/><rect x="16" y="38" width="1" height="1" fill="#0a0612"/><rect x="17" y="38" width="17" height="1" fill="#12101a"/><rect x="34" y="38" width="1" height="1" fill="#08060e"/><rect x="35" y="38" width="1" height="1" fill="#0a0612"/><rect x="36" y="38" width="1" height="1" fill="#e7dec4"/><rect x="37" y="38" width="1" height="1" fill="#0a0612"/><rect x="38" y="38" width="6" height="1" fill="#1c1030"/><rect x="44" y="38" width="4" height="1" fill="#140a20"/><rect x="0" y="39" width="4" height="1" fill="#140a20"/><rect x="4" y="39" width="1" height="1" fill="#1c1030"/><rect x="5" y="39" width="1" height="1" fill="#140a20"/><rect x="6" y="39" width="2" height="1" fill="#1c1030"/><rect x="8" y="39" width="1" height="1" fill="#0a0612"/><rect x="9" y="39" width="4" height="1" fill="#c8281c"/><rect x="13" y="39" width="3" height="1" fill="#7e150c"/><rect x="16" y="39" width="1" height="1" fill="#0a0612"/><rect x="17" y="39" width="18" height="1" fill="#08060e"/><rect x="35" y="39" width="1" height="1" fill="#0a0612"/><rect x="36" y="39" width="1" height="1" fill="#e7dec4"/><rect x="37" y="39" width="1" height="1" fill="#0a0612"/><rect x="38" y="39" width="5" height="1" fill="#1c1030"/><rect x="43" y="39" width="1" height="1" fill="#140a20"/><rect x="44" y="39" width="1" height="1" fill="#1c1030"/><rect x="45" y="39" width="3" height="1" fill="#140a20"/><rect x="0" y="40" width="5" height="1" fill="#140a20"/><rect x="5" y="40" width="1" height="1" fill="#1c1030"/><rect x="6" y="40" width="1" height="1" fill="#6a5a9c"/><rect x="7" y="40" width="2" height="1" fill="#1c1030"/><rect x="9" y="40" width="1" height="1" fill="#0a0612"/><rect x="10" y="40" width="2" height="1" fill="#c8281c"/><rect x="12" y="40" width="3" height="1" fill="#7e150c"/><rect x="15" y="40" width="21" height="1" fill="#0a0612"/><rect x="36" y="40" width="1" height="1" fill="#e7dec4"/><rect x="37" y="40" width="1" height="1" fill="#0a0612"/><rect x="38" y="40" width="6" height="1" fill="#1c1030"/><rect x="44" y="40" width="4" height="1" fill="#140a20"/><rect x="0" y="41" width="4" height="1" fill="#140a20"/><rect x="4" y="41" width="1" height="1" fill="#1c1030"/><rect x="5" y="41" width="1" height="1" fill="#140a20"/><rect x="6" y="41" width="3" height="1" fill="#1c1030"/><rect x="9" y="41" width="2" height="1" fill="#0a0612"/><rect x="11" y="41" width="3" height="1" fill="#7e150c"/><rect x="14" y="41" width="2" height="1" fill="#0a0612"/><rect x="16" y="41" width="21" height="1" fill="#c7bc9c"/><rect x="37" y="41" width="1" height="1" fill="#0a0612"/><rect x="38" y="41" width="5" height="1" fill="#1c1030"/><rect x="43" y="41" width="1" height="1" fill="#140a20"/><rect x="44" y="41" width="1" height="1" fill="#1c1030"/><rect x="45" y="41" width="3" height="1" fill="#140a20"/><rect x="0" y="42" width="5" height="1" fill="#140a20"/><rect x="5" y="42" width="6" height="1" fill="#1c1030"/><rect x="11" y="42" width="27" height="1" fill="#0a0612"/><rect x="38" y="42" width="6" height="1" fill="#1c1030"/><rect x="44" y="42" width="4" height="1" fill="#140a20"/><rect x="0" y="43" width="4" height="1" fill="#140a20"/><rect x="4" y="43" width="1" height="1" fill="#1c1030"/><rect x="5" y="43" width="1" height="1" fill="#140a20"/><rect x="6" y="43" width="37" height="1" fill="#1c1030"/><rect x="43" y="43" width="1" height="1" fill="#140a20"/><rect x="44" y="43" width="1" height="1" fill="#1c1030"/><rect x="45" y="43" width="3" height="1" fill="#140a20"/><rect x="0" y="44" width="5" height="1" fill="#140a20"/><rect x="5" y="44" width="31" height="1" fill="#1c1030"/><rect x="36" y="44" width="1" height="1" fill="#6a5a9c"/><rect x="37" y="44" width="7" height="1" fill="#1c1030"/><rect x="44" y="44" width="4" height="1" fill="#140a20"/><rect x="0" y="45" width="4" height="1" fill="#140a20"/><rect x="4" y="45" width="1" height="1" fill="#1c1030"/><rect x="5" y="45" width="1" height="1" fill="#140a20"/><rect x="6" y="45" width="1" height="1" fill="#1c1030"/><rect x="7" y="45" width="1" height="1" fill="#140a20"/><rect x="8" y="45" width="1" height="1" fill="#1c1030"/><rect x="9" y="45" width="1" height="1" fill="#140a20"/><rect x="10" y="45" width="1" height="1" fill="#1c1030"/><rect x="11" y="45" width="1" height="1" fill="#140a20"/><rect x="12" y="45" width="1" height="1" fill="#1c1030"/><rect x="13" y="45" width="1" height="1" fill="#140a20"/><rect x="14" y="45" width="1" height="1" fill="#1c1030"/><rect x="15" y="45" width="1" height="1" fill="#140a20"/><rect x="16" y="45" width="1" height="1" fill="#1c1030"/><rect x="17" y="45" width="1" height="1" fill="#140a20"/><rect x="18" y="45" width="1" height="1" fill="#1c1030"/><rect x="19" y="45" width="1" height="1" fill="#140a20"/><rect x="20" y="45" width="1" height="1" fill="#1c1030"/><rect x="21" y="45" width="1" height="1" fill="#140a20"/><rect x="22" y="45" width="1" height="1" fill="#1c1030"/><rect x="23" y="45" width="1" height="1" fill="#140a20"/><rect x="24" y="45" width="1" height="1" fill="#1c1030"/><rect x="25" y="45" width="1" height="1" fill="#140a20"/><rect x="26" y="45" width="1" height="1" fill="#1c1030"/><rect x="27" y="45" width="1" height="1" fill="#140a20"/><rect x="28" y="45" width="1" height="1" fill="#1c1030"/><rect x="29" y="45" width="1" height="1" fill="#140a20"/><rect x="30" y="45" width="1" height="1" fill="#1c1030"/><rect x="31" y="45" width="1" height="1" fill="#140a20"/><rect x="32" y="45" width="1" height="1" fill="#1c1030"/><rect x="33" y="45" width="1" height="1" fill="#140a20"/><rect x="34" y="45" width="1" height="1" fill="#1c1030"/><rect x="35" y="45" width="1" height="1" fill="#140a20"/><rect x="36" y="45" width="1" height="1" fill="#1c1030"/><rect x="37" y="45" width="1" height="1" fill="#140a20"/><rect x="38" y="45" width="1" height="1" fill="#1c1030"/><rect x="39" y="45" width="1" height="1" fill="#140a20"/><rect x="40" y="45" width="1" height="1" fill="#1c1030"/><rect x="41" y="45" width="1" height="1" fill="#140a20"/><rect x="42" y="45" width="1" height="1" fill="#1c1030"/><rect x="43" y="45" width="1" height="1" fill="#140a20"/><rect x="44" y="45" width="1" height="1" fill="#1c1030"/><rect x="45" y="45" width="3" height="1" fill="#140a20"/><rect x="0" y="46" width="5" height="1" fill="#140a20"/><rect x="5" y="46" width="1" height="1" fill="#1c1030"/><rect x="6" y="46" width="1" height="1" fill="#140a20"/><rect x="7" y="46" width="1" height="1" fill="#1c1030"/><rect x="8" y="46" width="1" height="1" fill="#140a20"/><rect x="9" y="46" width="1" height="1" fill="#1c1030"/><rect x="10" y="46" width="1" height="1" fill="#140a20"/><rect x="11" y="46" width="1" height="1" fill="#1c1030"/><rect x="12" y="46" width="1" height="1" fill="#140a20"/><rect x="13" y="46" width="1" height="1" fill="#1c1030"/><rect x="14" y="46" width="1" height="1" fill="#140a20"/><rect x="15" y="46" width="1" height="1" fill="#1c1030"/><rect x="16" y="46" width="1" height="1" fill="#140a20"/><rect x="17" y="46" width="1" height="1" fill="#1c1030"/><rect x="18" y="46" width="1" height="1" fill="#140a20"/><rect x="19" y="46" width="1" height="1" fill="#1c1030"/><rect x="20" y="46" width="1" height="1" fill="#140a20"/><rect x="21" y="46" width="1" height="1" fill="#1c1030"/><rect x="22" y="46" width="1" height="1" fill="#140a20"/><rect x="23" y="46" width="1" height="1" fill="#1c1030"/><rect x="24" y="46" width="1" height="1" fill="#140a20"/><rect x="25" y="46" width="1" height="1" fill="#1c1030"/><rect x="26" y="46" width="1" height="1" fill="#140a20"/><rect x="27" y="46" width="1" height="1" fill="#1c1030"/><rect x="28" y="46" width="1" height="1" fill="#140a20"/><rect x="29" y="46" width="1" height="1" fill="#1c1030"/><rect x="30" y="46" width="1" height="1" fill="#140a20"/><rect x="31" y="46" width="1" height="1" fill="#1c1030"/><rect x="32" y="46" width="1" height="1" fill="#140a20"/><rect x="33" y="46" width="1" height="1" fill="#1c1030"/><rect x="34" y="46" width="1" height="1" fill="#140a20"/><rect x="35" y="46" width="1" height="1" fill="#1c1030"/><rect x="36" y="46" width="1" height="1" fill="#140a20"/><rect x="37" y="46" width="1" height="1" fill="#1c1030"/><rect x="38" y="46" width="1" height="1" fill="#140a20"/><rect x="39" y="46" width="1" height="1" fill="#1c1030"/><rect x="40" y="46" width="1" height="1" fill="#140a20"/><rect x="41" y="46" width="1" height="1" fill="#1c1030"/><rect x="42" y="46" width="1" height="1" fill="#140a20"/><rect x="43" y="46" width="1" height="1" fill="#1c1030"/><rect x="44" y="46" width="4" height="1" fill="#140a20"/><rect x="0" y="47" width="48" height="1" fill="#140a20"/></svg>
